<svg xmlns="http://www.w3.org/2000/svg" viewBox="0 0 2009.87 1960.85">
    <g id="blanco_y_negro" data-name="blanco y negro">
        <path fill="currentColor" stroke="currentColor" stroke-width="30"
            d="M1756.18,889.76c-9.46-72.7-49.44-119.81-62.72-135a302.19,302.19,0,0,0-44.69-40.1c-.11-.38-.23-.75-.34-1.13-2.63-9-23-12.26-25.9-21.12s11.44-23.4,8.29-32.16-.1-20.11-3.52-28.77-1.59-20-5.28-28.5-21.76-11-25.72-19.42-14.41-13.62-18.64-21.92-14.45-13.1-19-21.25,20.5-33.33,15.73-41.33-18-11.5-23-19.33-15.48-12.47-20.8-20.12-24.45-5.28-30-12.74.45-23.75-5.4-31-4.81-20.69-10.94-27.71-17.67-9.67-24.06-16.45-5.69-21.13-12.35-27.66-18.61-8.24-25.53-14.49-18.41-7.67-25.59-13.62-25,1.84-32.47-3.8-7.11-21.32-14.78-26.63-8.49-21.37-16.4-26.33-29.14,12.49-37.28,7.91-5.29-29.31-13.65-33.51-24.49,8.14-33,4.35-10.79-22.45-19.53-25.81-17.06-8.88-26-11.79-21.4,5.86-30.44,3.42-17.18-8-26.35-10-18.84-.35-28.11-1.83-17.7-8.12-27-9.11-19.25,8.84-28.64,8.35-18.18,6-27.59,6-18.34-7.61-27.66-7.12S989.57,192,980.29,193s-18.73-1.44-28,0-22.79-18.1-31.93-16.14S908.84,209,899.8,211.43s-23.62-14-32.53-11.07-11.58,23-20.33,26.34-28.23-18.69-36.8-14.89-18,7.76-26.36,12-13.16,16.41-21.33,21-2.87,31.27-10.83,36.26-14.56,10.47-22.28,15.82-31.76-12.06-39.23-6.38.68,30.68-6.55,36.68S657,324.82,650,331.12s.11,27-6.6,33.57-26.11.31-32.56,7.14-21.06,6.62-27.24,13.7-11,15.82-16.86,23.13,5.58,28-.05,35.51-3.95,19.54-9.31,27.25-34.75-.83-39.84,7.06-7.68,17.59-12.5,25.65,2.41,22.92-2.13,31.14-3.48,19-7.75,27.32-26.74,7.71-30.73,16.21,4.49,22.54.77,31.16-12.56,15-16,23.69,11.69,24,8.52,32.87S446.77,682,443.86,690.93a57.88,57.88,0,0,0-2.08,9.53,364.67,364.67,0,0,0-63.89,47.91c-18.22,17.81-43.92,43.45-61.19,85.79-20.36,49.89-17.3,94.25-15.3,119.15,1.68,20.94,4.87,56.57,24.48,95.32,0,0,24.47,48.4,74.95,84.2l1.15.8c-2.08,8.27-10.82,17.52-9.52,25.23,1.57,9.25,20.92,15.12,22.74,24.25s-6.06,20.23-4,29.3,2.15,18.73,4.5,27.73-1.18,19.85,1.43,28.79-3.46,21-.58,29.85,9.35,17.06,12.5,25.82,1.89,19.78,5.31,28.44,30.78,7.78,34.47,16.33-12.65,26.29-8.69,34.71,35.76,3.39,40,11.69,4.9,18,9.4,26.21,2.17,20,6.94,28,.48,21.74,5.53,29.57,19.9,9.28,25.22,16.92,3.76,20.32,9.34,27.78,23.57,5.25,29.43,12.5-5.19,28.69.93,35.71,6.72,19.92,13.11,26.7,39.23-12.07,45.89-5.55,10.08,15.66,17,21.91,11.75,14.24,18.93,20.19,11.45,15.09,18.88,20.73,4,26.48,11.71,31.79,15.51,11.56,23.42,16.52,14.92,12.91,23.06,17.5c7,4,18.74,0,27.19,1.52,4.89,3.74,8.52,6.25,10.58,7.62,73.08,48.44,152.85,74,230.69,74,5,0,10-.1,15-.31,53.7-2.27,105.89-17.4,155.12-45,6.65-3.72,13-7.56,19.09-11.43,4.91,1.68,9.69,3,13.49,1.5,6.34-2.43,9.23-13,13.61-20.14,3-2.19,5.8-4.36,8.56-6.5,9.25-.28,25,12.89,32.54,9.08,8.35-4.2,5.28-29.82,13.45-34.43s29.88,13.33,37.84,8.35,11-18,18.76-23.39,15.86-10.44,23.34-16.12,18.27-7.7,25.5-13.7,4.68-23.34,11.65-29.64,4.29-22.06,11-28.64,16.52-9.21,23-16,7-18,13.21-25.12,39.28,8.51,45.18,1.2.62-23.58,6.25-31.1-1.35-23.73,4-31.44,7.85-16.63,12.93-24.52,14.59-12.43,19.4-20.5,26.2-6.54,30.73-14.76-2.33-22.46,1.93-30.82-1.07-21,2.92-29.48,29.91-7,33.63-15.63-12-25.09-8.53-33.82,14.63-14.26,17.81-23.09,8.69-16.75,11.59-25.67,4.62-18.12,7.26-27.13-4.48-20.43-2.11-29.51.84-18.64,2.94-27.79,25.77-13.52,27.59-22.73.56-19.07,2.13-28.32-4.36-19.6-3.06-28.89,22.46-16.23,23.49-25.55c.55-4.89.95-9.94,1.32-15,10.43-15.44,16.43-26.46,16.43-26.46C1733.52,1031.19,1766.59,969.83,1756.18,889.76ZM504,937.92c-31.16,48.57-42.15,97.61-32.58,154.89C375.22,1057.27,322.13,932.29,364.86,844c21.29-44,56.62-58,100.83-36.72C515.14,831.13,536,888.2,504,937.92Zm117.81,464.21,0-.46c-1.15-16.31-2.46-34.8-1.84-53.45V1348c-.69-24.7,0-60.56,14.4-86.77,5.24-9.56,20.51-33.37,49.2-47.92,15.46-7.84,32.7-11.65,52.7-11.65,15.77,0,30.29,2.44,40.9,4.23,5.26.89,9.81,1.65,13.55,2,21.26,2,43.75,3.74,66.84,5.26l6.17.41-.69-6.12c-1.44-12.74,10.61-27.62,24.24-30l2.19-.32c17.62-2.54,37.57-5.41,73.1,7.79,45.06,16.75,76,19.7,114.06,10.89,14.75-3.42,49.3-11.41,67.54-9.92,25.4,2.08,37.42,5.07,51.36,12.79,5,3,9,8.89,10.81,15.82l1,4,4.16-.14c8.1-.28,16-.58,23.34-.9l3.46-.17c16.84-.87,56.27-2.89,98.25,15.24,11.39,4.92,38.07,16.44,59,42.57,15.87,19.85,26,48.22,30,84.33a242,242,0,0,1,1.23,36.29v.27c1.15,29.82-2.83,78.46-28.38,140.84-12.68,31-42.36,103.43-118.16,170-38,33.4-117.15,102.9-238.24,108-80.53,3.4-163.36-21.5-239.56-72-31.7-21-86.31-74.2-135.9-155C649.93,1560.84,629.86,1515.31,621.85,1402.13Zm805.6-86c-5.67-18.81-13.62-34.7-23.82-47.46-22.51-28.14-50.84-40.37-62.94-45.6-44.2-19.08-85.33-17-103-16.07-1.19.07-2.27.12-3.24.16-6.15.27-12.62.53-19.29.77-2.89-7.94-7.94-14.35-14.43-18.2-15.56-8.61-28.57-11.91-55.68-14.13-19.83-1.62-55.49,6.63-70.72,10.15-35.87,8.3-65.17,5.46-108.11-10.5-38-14.13-59.35-11-78.19-8.33l-2.34.34c-16.91,3-31.44,18.8-32.94,35.26-21.05-1.43-41.57-3.07-61-4.87-3.36-.31-7.73-1-12.8-1.9-23.43-3.94-62.64-10.54-100,8.39-31.27,15.86-47.89,41.77-53.59,52.17a112.1,112.1,0,0,0-9.75,25.17c-16.79-39.5-29.19-82.48-37.68-128.08a709.45,709.45,0,0,1-14.63-144c0-3.89,0-7.78.11-11.66q-.11-7.54-.11-15.15c0-302.81,132-548.57,463.25-551l3.72,0h1.33c328,0,468.3,246.72,468.3,551.07C1499.85,1107.9,1477.36,1223.48,1427.45,1316.09ZM1585.25,1084c9.67-60.67,5.21-109.58-28.69-155.09-25.13-33.74-24.59-75.33,3.5-110.08,22.74-28.12,52.47-43.67,88.06-31.46,42.59,14.61,53,51.88,55.1,94.48C1707.92,976.56,1675,1037.44,1585.25,1084Z" />
        <path fill="currentColor" stroke="currentColor" stroke-width="30"
            d="M935,809.39c-30.4-28-67.63-41.72-104.83-38.73-43.69,3.51-84.67,26.51-115.39,64.76-29.08,36.22-45.06,81.78-43.85,125,1.39,49.28,17.7,94.05,45.94,126.06,29.36,33.29,68.71,50.89,113.8,50.89s87.35-18.22,118.85-51.29c31.76-33.34,49.25-78.45,49.25-127C998.75,902.08,974.91,846.12,935,809.39ZM830.65,1125.12c-84.09,0-144.72-67.86-147.45-165-2.18-78,58-170,147.94-177.21,3-.24,6-.36,9-.36,30.61,0,61.32,12.74,86.48,35.88,37.46,34.45,59.82,87,59.82,140.67C986.46,1052.18,918,1125.12,830.65,1125.12Z" />
        <path fill="currentColor" stroke="currentColor" stroke-width="30"
            d="M812,1035.13c69.26-6.35,83.6-29.67,83.6-75.46S856.75,866,812,869.29s-78.6,46-77.39,85.85C736,1000.91,767.28,1039.23,812,1035.13Zm28-117.56c7.74,0,14,7.26,14,16.21S847.75,950,840,950s-14-7.26-14-16.22S832.27,917.57,840,917.57Z" />
        <path fill="currentColor" stroke="currentColor" stroke-width="20"
            d="M1241.15,774h-.24c-36,1.8-78.36,25.5-113.35,63.38-36.44,39.47-57,85.65-56.44,126.64a193.14,193.14,0,0,0,53,133.64c33.29,35.07,78.37,55.19,123.68,55.19s87-19.69,117.34-55.44c29.78-35,46.18-82.42,46.18-133.51-.82-42-19.51-89.21-50-126.25C1327.51,796.62,1284.84,774,1241.15,774Zm157.87,190c0,100.65-65,176.56-151.23,176.56-89.1,0-164.37-80.87-164.37-176.66-.54-38,18.85-81.06,53.19-118.25,32.32-35,72.44-57.76,104.73-59.43C1326.75,786.37,1397.43,883.62,1399,964.05Z" />
        <path fill="currentColor" stroke="currentColor" stroke-width="30"
            d="M1343,966.27c1.18-40.69-31.78-84.23-75.63-87.64s-81.7,45.51-81.7,92.26,14,70.55,81.7,77C1311,1052.12,1341.62,1013,1343,966.27Zm-51.62-42.16c7.74,0,14,7.27,14,16.22s-6.27,16.22-14,16.22-14-7.26-14-16.22S1283.61,924.11,1291.35,924.11Z" />
        <path fill="currentColor" stroke="currentColor" stroke-width="30"
            d="M1290.16,1609.44c4.64-3.68-.13-11-4.61-7.06C1175.68,1699.73,875.8,1736,727.06,1574c-4-4.39-9.22,2.46-5.19,6.81C843.66,1712.44,1103.17,1757.72,1290.16,1609.44Z" />
        <path fill="currentColor" stroke="currentColor" stroke-width="30"
            d="M1074.61,1274.06c19.92-10.62,20.26-16.17,39.84-25a224,224,0,0,1,34.27-11.72c19.89-5.07,33.92-5.79,35.66-12.9.92-3.79-2-8.08-2.39-8.74-1-1.55-3.58-4.65-10.76-6.75a27.15,27.15,0,0,0-7-1.07c-51.28,4.77-75,20.22-103.91,54.29-10.1,12.07-19.67,20.87-28.77,26.81C1039.47,1290,1060.13,1281.79,1074.61,1274.06Z" />
        <path fill="currentColor" stroke="currentColor" stroke-width="30"
            d="M914.66,1229.68c4.15,1.47,18.51,8.81,31.46,17.91,17.57,12.35,16.87,17.86,34.43,32,1.74,1.4,3.6,2.84,5.52,4.27A167.51,167.51,0,0,1,970,1262.15c-17.07-29.62-27.13-49.24-56.62-68.58-5.77-3-8.82-2.85-11-2.85-7.17,0-14,4.31-14.48,13.31-.07,1.19.19,7.19,2.33,10.46C893.13,1219.05,896.79,1223.36,914.66,1229.68Z" />
    </g>
</svg>